<svg width="128" height="128" viewBox="0 0 128 128" fill="none" xmlns="http://www.w3.org/2000/svg">
<rect width="128" height="128" rx="5" fill="white"/>
<path d="M15.9946 18.9946C15.9976 18.4444 16.4444 18 16.9946 18H31.5994C32.0035 18 32.3679 18.2433 32.5229 18.6165L63.0571 92.1447C63.3984 92.9664 64.5624 92.9667 64.904 92.1451L95.4769 18.6161C95.632 18.2431 95.9963 18 96.4003 18H111.5C112.052 18 112.5 18.4477 112.5 19V109C112.5 109.552 112.052 110 111.5 110H99.6016C99.0493 110 98.6016 109.552 98.6016 109V40.6496C98.6016 40.3082 98.4274 39.9904 98.1397 39.8067L64.5185 18.3437C64.1902 18.1341 63.7701 18.1342 63.4419 18.344L29.8599 39.8066C29.5724 39.9904 29.3984 40.308 29.3984 40.6492V109C29.3984 109.552 28.9507 110 28.3984 110H16.5054C15.951 110 15.5025 109.549 15.5055 108.995L15.9946 18.9946Z" fill="#BE1E1E"/>
</svg>
